999
dxfrw 0.5.10
0
SECTION
2
HEADER
9
$ACADVER
1
AC1021
9
$HANDSEED
5
20000
9
$DWGCODEPAGE
3
ANSI_1252
9
$INSBASE
10
0
20
0
30
0
9
$EXTMIN
10
-523.614289705
20
-320.607457878
30
0
9
$EXTMAX
10
4833.22301
20
432.025
30
0
9
$LIMMIN
10
0
20
0
9
$LIMMAX
10
420
20
297
9
$ORTHOMODE
70
0
9
$LTSCALE
40
1
9
$TEXTSTYLE
7
STANDARD
9
$CLAYER
8
dimension
9
$DIMASZ
40
20
9
$DIMLFAC
40
1
9
$DIMSCALE
40
1
9
$DIMEXO
40
0.025
9
$DIMEXE
40
0.05
9
$DIMTXT
40
20
9
$DIMTSZ
40
0
9
$DIMAUNIT
70
0
9
$DIMADEC
70
2
9
$DIMLUNIT
70
2
9
$DIMSTYLE
2
STANDARD
9
$DIMGAP
40
0.025
9
$DIMTIH
70
0
9
$LUNITS
70
2
9
$LUPREC
70
4
9
$AUNITS
70
0
9
$AUPREC
70
2
9
$SPLINESEGS
70
8
9
$GRIDMODE
70
1
9
$SNAPSTYLE
70
0
9
$GRIDUNIT
10
0
20
0
9
$PINSBASE
10
0
20
0
30
0
9
$PLIMMIN
10
0
20
0
9
$PLIMMAX
10
7.82018e-07
20
1.106e-06
9
$INSUNITS
70
4
9
$PSVPSCALE
40
1
0
ENDSEC
0
SECTION
2
CLASSES
0
ENDSEC
0
SECTION
2
TABLES
0
TABLE
2
VPORT
5
8
330
0
100
AcDbSymbolTable
70
1
0
VPORT
5
31
330
2
100
AcDbSymbolTableRecord
100
AcDbViewportTableRecord
2
*ACTIVE
70
0
10
0
20
0
11
1
21
1
12
1321.31390274
22
648.433342576
13
0
23
0
14
10
24
10
15
10
25
10
16
0
26
0
36
1
17
0
27
0
37
0
40
1774.16950464
41
1.81102362205
42
50
43
0
44
0
50
0
51
0
71
0
72
100
73
1
74
3
75
0
76
1
77
0
78
0
281
0
65
1
110
0
120
0
130
0
111
1
121
0
131
0
112
0
122
1
132
0
79
0
146
0
348
10020
60
7
61
5
292
1
282
1
141
0
142
0
63
250
421
3358443
0
ENDTAB
0
TABLE
2
LTYPE
5
5
330
0
100
AcDbSymbolTable
70
4
0
LTYPE
5
14
330
5
100
AcDbSymbolTableRecord
100
AcDbLinetypeTableRecord
2
ByBlock
70
0
3

72
65
73
0
40
0
0
LTYPE
5
15
330
5
100
AcDbSymbolTableRecord
100
AcDbLinetypeTableRecord
2
ByLayer
70
0
3

72
65
73
0
40
0
0
LTYPE
5
16
330
5
100
AcDbSymbolTableRecord
100
AcDbLinetypeTableRecord
2
Continuous
70
0
3
Solid line
72
65
73
0
40
0
0
LTYPE
5
32
330
5
100
AcDbSymbolTableRecord
100
AcDbLinetypeTableRecord
2
DOT
70
0
3
Dot . . . . . . . . . . . . . . . . . . . . . .
72
65
73
2
40
6.35
49
0
74
0
49
-6.35
74
0
0
LTYPE
5
33
330
5
100
AcDbSymbolTableRecord
100
AcDbLinetypeTableRecord
2
DOT2
70
0
3
Dot (.5x) .....................................
72
65
73
2
40
3.175
49
0
74
0
49
-3.175
74
0
0
LTYPE
5
34
330
5
100
AcDbSymbolTableRecord
100
AcDbLinetypeTableRecord
2
DOTX2
70
0
3
Dot (2x) .  .  .  .  .  .  .  .  .  .  .  .  .
72
65
73
2
40
12.7
49
0
74
0
49
-12.7
74
0
0
LTYPE
5
35
330
5
100
AcDbSymbolTableRecord
100
AcDbLinetypeTableRecord
2
DASHED
70
0
3
Dot . . . . . . . . . . . . . . . . . . . . . .
72
65
73
2
40
19.05
49
12.7
74
0
49
-6.35
74
0
0
LTYPE
5
36
330
5
100
AcDbSymbolTableRecord
100
AcDbLinetypeTableRecord
2
DASHED2
70
0
3
Dashed (.5x) _ _ _ _ _ _ _ _ _ _ _ _ _ _ _ _ _
72
65
73
2
40
9.525
49
6.35
74
0
49
-3.175
74
0
0
LTYPE
5
37
330
5
100
AcDbSymbolTableRecord
100
AcDbLinetypeTableRecord
2
DASHEDX2
70
0
3
Dashed (2x) ____  ____  ____  ____  ____  ___
72
65
73
2
40
38.1
49
25.4
74
0
49
-12.7
74
0
0
LTYPE
5
38
330
5
100
AcDbSymbolTableRecord
100
AcDbLinetypeTableRecord
2
DASHDOT
70
0
3
Dash dot __ . __ . __ . __ . __ . __ . __ . __
72
65
73
4
40
25.4
49
12.7
74
0
49
-6.35
74
0
49
0
74
0
49
-6.35
74
0
0
LTYPE
5
39
330
5
100
AcDbSymbolTableRecord
100
AcDbLinetypeTableRecord
2
DASHDOT2
70
0
3
Dash dot (.5x) _._._._._._._._._._._._._._._.
72
65
73
4
40
12.7
49
6.35
74
0
49
-3.175
74
0
49
0
74
0
49
-3.175
74
0
0
LTYPE
5
3A
330
5
100
AcDbSymbolTableRecord
100
AcDbLinetypeTableRecord
2
DASHDOTX2
70
0
3
Dash dot (2x) ____  .  ____  .  ____  .  ___
72
65
73
4
40
50.8
49
25.4
74
0
49
-12.7
74
0
49
0
74
0
49
-12.7
74
0
0
LTYPE
5
3B
330
5
100
AcDbSymbolTableRecord
100
AcDbLinetypeTableRecord
2
DIVIDE
70
0
3
Divide ____ . . ____ . . ____ . . ____ . . ____
72
65
73
6
40
31.75
49
12.7
74
0
49
-6.35
74
0
49
0
74
0
49
-6.35
74
0
49
0
74
0
49
-6.35
74
0
0
LTYPE
5
3C
330
5
100
AcDbSymbolTableRecord
100
AcDbLinetypeTableRecord
2
DIVIDE2
70
0
3
Divide (.5x) __..__..__..__..__..__..__..__.._
72
65
73
6
40
15.875
49
6.35
74
0
49
-3.175
74
0
49
0
74
0
49
-3.175
74
0
49
0
74
0
49
-3.175
74
0
0
LTYPE
5
3D
330
5
100
AcDbSymbolTableRecord
100
AcDbLinetypeTableRecord
2
DIVIDEX2
70
0
3
Divide (2x) ________  .  .  ________  .  .  _
72
65
73
6
40
63.5
49
25.4
74
0
49
-12.7
74
0
49
0
74
0
49
-12.7
74
0
49
0
74
0
49
-12.7
74
0
0
LTYPE
5
3E
330
5
100
AcDbSymbolTableRecord
100
AcDbLinetypeTableRecord
2
BORDER
70
0
3
Border __ __ . __ __ . __ __ . __ __ . __ __ .
72
65
73
6
40
44.45
49
12.7
74
0
49
-6.35
74
0
49
12.7
74
0
49
-6.35
74
0
49
0
74
0
49
-6.35
74
0
0
LTYPE
5
3F
330
5
100
AcDbSymbolTableRecord
100
AcDbLinetypeTableRecord
2
BORDER2
70
0
3
Border (.5x) __.__.__.__.__.__.__.__.__.__.__.
72
65
73
6
40
22.225
49
6.35
74
0
49
-3.175
74
0
49
6.35
74
0
49
-3.175
74
0
49
0
74
0
49
-3.175
74
0
0
LTYPE
5
40
330
5
100
AcDbSymbolTableRecord
100
AcDbLinetypeTableRecord
2
BORDERX2
70
0
3
Border (2x) ____  ____  .  ____  ____  .  ___
72
65
73
6
40
88.9
49
25.4
74
0
49
-12.7
74
0
49
25.4
74
0
49
-12.7
74
0
49
0
74
0
49
-12.7
74
0
0
LTYPE
5
41
330
5
100
AcDbSymbolTableRecord
100
AcDbLinetypeTableRecord
2
CENTER
70
0
3
Center ____ _ ____ _ ____ _ ____ _ ____ _ ____
72
65
73
4
40
50.8
49
31.75
74
0
49
-6.35
74
0
49
6.35
74
0
49
-6.35
74
0
0
LTYPE
5
42
330
5
100
AcDbSymbolTableRecord
100
AcDbLinetypeTableRecord
2
CENTER2
70
0
3
Center (.5x) ___ _ ___ _ ___ _ ___ _ ___ _ ___
72
65
73
4
40
28.575
49
19.05
74
0
49
-3.175
74
0
49
3.175
74
0
49
-3.175
74
0
0
LTYPE
5
43
330
5
100
AcDbSymbolTableRecord
100
AcDbLinetypeTableRecord
2
CENTERX2
70
0
3
Center (2x) ________  __  ________  __  _____
72
65
73
4
40
101.6
49
63.5
74
0
49
-12.7
74
0
49
12.7
74
0
49
-12.7
74
0
0
ENDTAB
0
TABLE
2
LAYER
5
2
330
0
100
AcDbSymbolTable
70
1
0
LAYER
5
10
330
2
100
AcDbSymbolTableRecord
100
AcDbLayerTableRecord
2
0
70
0
62
7
6
CONTINUOUS
370
0
390
F
0
LAYER
5
44
330
2
100
AcDbSymbolTableRecord
100
AcDbLayerTableRecord
2
boundary
70
0
62
5
6
CONTINUOUS
370
0
390
F
0
LAYER
5
45
330
2
100
AcDbSymbolTableRecord
100
AcDbLayerTableRecord
2
reference
70
0
62
30
420
16744448
6
CONTINUOUS
370
0
390
F
0
LAYER
5
46
330
2
100
AcDbSymbolTableRecord
100
AcDbLayerTableRecord
2
10-32 insert holes
70
0
62
2
6
CONTINUOUS
370
0
390
F
0
LAYER
5
47
330
2
100
AcDbSymbolTableRecord
100
AcDbLayerTableRecord
2
dimension
70
0
62
253
420
10526884
6
CONTINUOUS
370
0
390
F
0
LAYER
5
48
330
2
100
AcDbSymbolTableRecord
100
AcDbLayerTableRecord
2
end pocket
70
0
62
6
6
CONTINUOUS
370
0
390
F
0
LAYER
5
49
330
2
100
AcDbSymbolTableRecord
100
AcDbLayerTableRecord
2
notes
70
0
62
7
6
CONTINUOUS
370
0
390
F
0
ENDTAB
0
TABLE
2
STYLE
5
3
330
0
100
AcDbSymbolTable
70
3
0
STYLE
5
4A
330
2
100
AcDbSymbolTableRecord
100
AcDbTextStyleTableRecord
2
Standard
70
0
40
0
41
1
50
0
71
0
42
1
3
txt
4

0
ENDTAB
0
TABLE
2
VIEW
5
6
330
0
100
AcDbSymbolTable
70
0
0
ENDTAB
0
TABLE
2
UCS
5
7
330
0
100
AcDbSymbolTable
70
0
0
ENDTAB
0
TABLE
2
APPID
5
9
330
0
100
AcDbSymbolTable
70
1
0
APPID
5
12
330
9
100
AcDbSymbolTableRecord
100
AcDbRegAppTableRecord
2
ACAD
70
0
0
ENDTAB
0
TABLE
2
DIMSTYLE
5
A
330
0
100
AcDbSymbolTable
70
1
100
AcDbDimStyleTable
71
1
0
DIMSTYLE
105
4B
330
A
100
AcDbSymbolTableRecord
100
AcDbDimStyleTableRecord
2
Standard
70
0
40
1
41
20
42
0.025
43
0.38
44
0.05
45
0
46
0
47
0
48
0
140
20
141
0.09
142
0
143
25.4
144
1
145
0
146
1
147
0.025
148
0
71
0
72
0
73
0
74
1
75
0
76
0
77
0
78
0
79
0
170
0
171
2
172
0
173
0
174
0
175
0
176
0
177
0
178
0
179
0
271
4
272
4
273
2
274
2
275
0
276
0
277
2
278
46
279
0
280
0
281
0
282
0
283
1
284
0
285
0
286
0
288
0
289
3
340
Standard
341

371
-2
372
-2
0
ENDTAB
0
TABLE
2
BLOCK_RECORD
5
1
330
0
100
AcDbSymbolTable
70
2
0
BLOCK_RECORD
5
1F
330
1
100
AcDbSymbolTableRecord
100
AcDbBlockTableRecord
2
*Model_Space
70
0
280
1
281
0
0
BLOCK_RECORD
5
1E
330
1
100
AcDbSymbolTableRecord
100
AcDbBlockTableRecord
2
*Paper_Space
70
0
280
1
281
0
0
BLOCK_RECORD
5
4C
330
1
100
AcDbSymbolTableRecord
100
AcDbBlockTableRecord
2
*D3
70
0
280
1
281
0
0
BLOCK_RECORD
5
4F
330
1
100
AcDbSymbolTableRecord
100
AcDbBlockTableRecord
2
*D5
70
0
280
1
281
0
0
BLOCK_RECORD
5
52
330
1
100
AcDbSymbolTableRecord
100
AcDbBlockTableRecord
2
*D9
70
0
280
1
281
0
0
BLOCK_RECORD
5
55
330
1
100
AcDbSymbolTableRecord
100
AcDbBlockTableRecord
2
*D6
70
0
280
1
281
0
0
BLOCK_RECORD
5
58
330
1
100
AcDbSymbolTableRecord
100
AcDbBlockTableRecord
2
*D4
70
0
280
1
281
0
0
BLOCK_RECORD
5
5B
330
1
100
AcDbSymbolTableRecord
100
AcDbBlockTableRecord
2
*D2
70
0
280
1
281
0
0
BLOCK_RECORD
5
5E
330
1
100
AcDbSymbolTableRecord
100
AcDbBlockTableRecord
2
*D7
70
0
280
1
281
0
0
BLOCK_RECORD
5
61
330
1
100
AcDbSymbolTableRecord
100
AcDbBlockTableRecord
2
*D1
70
0
280
1
281
0
0
BLOCK_RECORD
5
64
330
1
100
AcDbSymbolTableRecord
100
AcDbBlockTableRecord
2
*D8
70
0
280
1
281
0
0
ENDTAB
0
ENDSEC
0
SECTION
2
BLOCKS
0
BLOCK
5
20
330
1F
100
AcDbEntity
8
0
100
AcDbBlockBegin
2
*Model_Space
70
0
10
0
20
0
30
0
3
*Model_Space
1

0
ENDBLK
5
21
330
1F
100
AcDbEntity
8
0
100
AcDbBlockEnd
0
BLOCK
5
1C
330
1B
100
AcDbEntity
8
0
100
AcDbBlockBegin
2
*Paper_Space
70
0
10
0
20
0
30
0
3
*Paper_Space
1

0
ENDBLK
5
1D
330
1F
100
AcDbEntity
8
0
100
AcDbBlockEnd
0
BLOCK
5
4D
330
4C
100
AcDbEntity
8
0
100
AcDbBlockBegin
2
*D3
70
1
10
0
20
0
3
*D3
1

0
LINE
5
67
100
AcDbEntity
8
dimension
6
CONTINUOUS
62
7
370
0
100
AcDbLine
10
1550.29296875
20
169.05
11
1550.29296875
21
245.25
0
SOLID
5
68
100
AcDbEntity
8
dimension
6
CONTINUOUS
62
7
370
0
100
AcDbTrace
10
1550.29296875
20
169.05
30
0
11
1546.96269149
21
189.05
31
0
12
1553.62324601
22
189.05
32
0
13
1553.62324601
23
189.05
33
0
0
SOLID
5
69
100
AcDbEntity
8
dimension
6
CONTINUOUS
62
7
370
0
100
AcDbTrace
10
1550.29296875
20
245.25
30
0
11
1553.62324601
21
225.25
31
0
12
1546.96269149
22
225.25
32
0
13
1546.96269149
23
225.25
33
0
0
MTEXT
5
6A
100
AcDbEntity
8
dimension
6
CONTINUOUS
62
7
370
0
100
AcDbMText
10
1540.26796875
20
207.15
30
0
40
20
41
46.6666666667
71
5
72
1
1
76.2
7
standard
210
0
220
0
230
1
50
90
73
2
44
1
0
LINE
5
6B
100
AcDbEntity
8
dimension
6
CONTINUOUS
62
7
370
0
100
AcDbLine
10
1482.525
20
169.05
11
1550.34296875
21
169.05
0
LINE
5
6C
100
AcDbEntity
8
dimension
6
CONTINUOUS
62
7
370
0
100
AcDbLine
10
1482.525
20
245.25
11
1550.34296875
21
245.25
0
ENDBLK
5
4E
330
4C
100
AcDbEntity
8
0
100
AcDbBlockEnd
0
BLOCK
5
50
330
4F
100
AcDbEntity
8
0
100
AcDbBlockBegin
2
*D5
70
1
10
0
20
0
3
*D5
1

0
LINE
5
6D
100
AcDbEntity
8
dimension
6
CONTINUOUS
62
7
370
0
100
AcDbLine
10
1442.5
20
362.3046875
11
1540
21
362.3046875
0
SOLID
5
6E
100
AcDbEntity
8
dimension
6
CONTINUOUS
62
7
370
0
100
AcDbTrace
10
1482.5
20
362.3046875
30
0
11
1462.5
21
358.974410238
31
0
12
1462.5
22
365.634964762
32
0
13
1462.5
23
365.634964762
33
0
0
SOLID
5
6F
100
AcDbEntity
8
dimension
6
CONTINUOUS
62
7
370
0
100
AcDbTrace
10
1500
20
362.3046875
30
0
11
1520
21
365.634964762
31
0
12
1520
22
358.974410238
32
0
13
1520
23
358.974410238
33
0
0
MTEXT
5
70
100
AcDbEntity
8
dimension
6
CONTINUOUS
62
7
370
0
100
AcDbMText
10
1521.13611111
20
372.3296875
30
0
40
20
41
42.2222222222
71
5
72
1
1
17.5
7
standard
210
0
220
0
230
1
50
0
73
2
44
1
0
LINE
5
71
100
AcDbEntity
8
dimension
6
CONTINUOUS
62
7
370
0
100
AcDbLine
10
1482.5
20
321.475
11
1482.5
21
362.3546875
0
LINE
5
72
100
AcDbEntity
8
dimension
6
CONTINUOUS
62
7
370
0
100
AcDbLine
10
1500
20
337.075
11
1500
21
362.3546875
0
ENDBLK
5
51
330
4F
100
AcDbEntity
8
0
100
AcDbBlockEnd
0
BLOCK
5
53
330
52
100
AcDbEntity
8
0
100
AcDbBlockBegin
2
*D9
70
1
10
0
20
0
3
*D9
1

0
LINE
5
73
100
AcDbEntity
8
dimension
6
CONTINUOUS
62
7
370
0
100
AcDbLine
10
-87
20
279.05
11
-87
21
377.05
0
SOLID
5
74
100
AcDbEntity
8
dimension
6
CONTINUOUS
62
7
370
0
100
AcDbTrace
10
-87
20
319.05
30
0
11
-83.6697227379
21
299.05
31
0
12
-90.3302772622
22
299.05
32
0
13
-90.3302772622
23
299.05
33
0
0
SOLID
5
75
100
AcDbEntity
8
dimension
6
CONTINUOUS
62
7
370
0
100
AcDbTrace
10
-87
20
337.05
30
0
11
-90.3302772622
21
357.05
31
0
12
-83.6697227379
22
357.05
32
0
13
-83.6697227379
23
357.05
33
0
0
MTEXT
5
76
100
AcDbEntity
8
dimension
6
CONTINUOUS
62
7
370
0
100
AcDbMText
10
-97.025
20
347.075
30
0
40
20
41
20
71
5
72
1
1
18
7
standard
210
0
220
0
230
1
50
90
73
2
44
1
0
LINE
5
77
100
AcDbEntity
8
dimension
6
CONTINUOUS
62
7
370
0
100
AcDbLine
10
-0.025
20
319.05
11
-87.05
21
319.05
0
LINE
5
78
100
AcDbEntity
8
dimension
6
CONTINUOUS
62
7
370
0
100
AcDbLine
10
-0.025
20
337.05
11
-87.05
21
337.05
0
ENDBLK
5
54
330
52
100
AcDbEntity
8
0
100
AcDbBlockEnd
0
BLOCK
5
56
330
55
100
AcDbEntity
8
0
100
AcDbBlockBegin
2
*D6
70
1
10
0
20
0
3
*D6
1

0
LINE
5
79
100
AcDbEntity
8
dimension
6
CONTINUOUS
62
7
370
0
100
AcDbLine
10
76.6
20
-35.15625
11
-40
21
-35.15625
0
SOLID
5
7A
100
AcDbEntity
8
dimension
6
CONTINUOUS
62
7
370
0
100
AcDbTrace
10
36.6
20
-35.15625
30
0
11
56.6
21
-31.8259727378
31
0
12
56.6
22
-38.4865272622
32
0
13
56.6
23
-38.4865272622
33
0
0
SOLID
5
7B
100
AcDbEntity
8
dimension
6
CONTINUOUS
62
7
370
0
100
AcDbTrace
10
0
20
-35.15625
30
0
11
-20
21
-38.4865272622
31
0
12
-20
22
-31.8259727378
32
0
13
-20
23
-31.8259727378
33
0
0
MTEXT
5
7C
100
AcDbEntity
8
dimension
6
CONTINUOUS
62
7
370
0
100
AcDbMText
10
59.9583333333
20
-25.13125
30
0
40
20
41
46.6666666667
71
5
72
1
1
36.6
7
standard
210
0
220
0
230
1
50
360
73
2
44
1
0
LINE
5
7D
100
AcDbEntity
8
dimension
6
CONTINUOUS
62
7
370
0
100
AcDbLine
10
36.6
20
347.025
11
36.6
21
-35.20625
0
LINE
5
7E
100
AcDbEntity
8
dimension
6
CONTINUOUS
62
7
370
0
100
AcDbLine
10
-4.5924254968e-18
20
337.025
11
-9.18485099361e-18
21
-35.20625
0
ENDBLK
5
57
330
55
100
AcDbEntity
8
0
100
AcDbBlockEnd
0
BLOCK
5
59
330
58
100
AcDbEntity
8
0
100
AcDbBlockBegin
2
*D4
70
1
10
0
20
0
3
*D4
1

0
LINE
5
7F
100
AcDbEntity
8
dimension
6
CONTINUOUS
62
7
370
0
100
AcDbLine
10
32.6
20
374.391674996
11
1467.4
21
374.391674996
0
SOLID
5
80
100
AcDbEntity
8
dimension
6
CONTINUOUS
62
7
370
0
100
AcDbTrace
10
32.6
20
374.391674996
30
0
11
52.6
21
377.721952258
31
0
12
52.6
22
371.061397734
32
0
13
52.6
23
371.061397734
33
0
0
SOLID
5
81
100
AcDbEntity
8
dimension
6
CONTINUOUS
62
7
370
0
100
AcDbTrace
10
1467.4
20
374.391674996
30
0
11
1447.4
21
371.061397734
31
0
12
1447.4
22
377.721952258
32
0
13
1447.4
23
377.721952258
33
0
0
MTEXT
5
82
100
AcDbEntity
8
dimension
6
CONTINUOUS
62
7
370
0
100
AcDbMText
10
750
20
384.416674996
30
0
40
20
41
77.7777777778
71
5
72
1
1
1434.8
7
standard
210
0
220
0
230
1
50
0
73
2
44
1
0
LINE
5
83
100
AcDbEntity
8
dimension
6
CONTINUOUS
62
7
370
0
100
AcDbLine
10
32.6
20
338.125
11
32.6
21
374.441674996
0
LINE
5
84
100
AcDbEntity
8
dimension
6
CONTINUOUS
62
7
370
0
100
AcDbLine
10
1467.4
20
338.125
11
1467.4
21
374.441674996
0
ENDBLK
5
5A
330
58
100
AcDbEntity
8
0
100
AcDbBlockEnd
0
BLOCK
5
5C
330
5B
100
AcDbEntity
8
0
100
AcDbBlockBegin
2
*D2
70
1
10
0
20
0
3
*D2
1

0
LINE
5
85
100
AcDbEntity
8
dimension
6
CONTINUOUS
62
7
370
0
100
AcDbLine
10
-55.1342964172
20
337.05
11
-55.1342964172
21
1.05
0
SOLID
5
86
100
AcDbEntity
8
dimension
6
CONTINUOUS
62
7
370
0
100
AcDbTrace
10
-55.1342964172
20
337.05
30
0
11
-51.804019155
21
317.05
31
0
12
-58.4645736794
22
317.05
32
0
13
-58.4645736794
23
317.05
33
0
0
SOLID
5
87
100
AcDbEntity
8
dimension
6
CONTINUOUS
62
7
370
0
100
AcDbTrace
10
-55.1342964172
20
1.05
30
0
11
-58.4645736794
21
21.05
31
0
12
-51.804019155
22
21.05
32
0
13
-51.804019155
23
21.05
33
0
0
MTEXT
5
88
100
AcDbEntity
8
dimension
6
CONTINUOUS
62
7
370
0
100
AcDbMText
10
-65.1592964172
20
169.05
30
0
40
20
41
40
71
5
72
1
1
336
7
standard
210
0
220
0
230
1
50
90
73
2
44
1
0
LINE
5
89
100
AcDbEntity
8
dimension
6
CONTINUOUS
62
7
370
0
100
AcDbLine
10
-0.025
20
337.05
11
-55.1842964172
21
337.05
0
LINE
5
8A
100
AcDbEntity
8
dimension
6
CONTINUOUS
62
7
370
0
100
AcDbLine
10
-0.025
20
1.05
11
-55.1842964172
21
1.05
0
ENDBLK
5
5D
330
5B
100
AcDbEntity
8
0
100
AcDbBlockEnd
0
BLOCK
5
5F
330
5E
100
AcDbEntity
8
0
100
AcDbBlockBegin
2
*D7
70
1
10
0
20
0
3
*D7
1

0
LINE
5
8B
100
AcDbEntity
8
dimension
6
CONTINUOUS
62
7
370
0
100
AcDbLine
10
102.05078125
20
377.05
11
102.05078125
21
288.575
0
SOLID
5
8C
100
AcDbEntity
8
dimension
6
CONTINUOUS
62
7
370
0
100
AcDbTrace
10
102.05078125
20
337.05
30
0
11
98.7205039879
21
357.05
31
0
12
105.381058512
22
357.05
32
0
13
105.381058512
23
357.05
33
0
0
SOLID
5
8D
100
AcDbEntity
8
dimension
6
CONTINUOUS
62
7
370
0
100
AcDbTrace
10
102.05078125
20
328.575
30
0
11
105.381058512
21
308.575
31
0
12
98.7205039879
22
308.575
32
0
13
98.7205039879
23
308.575
33
0
0
MTEXT
5
8E
100
AcDbEntity
8
dimension
6
CONTINUOUS
62
7
370
0
100
AcDbMText
10
92.02578125
20
369.297222222
30
0
40
20
41
64.4444444444
71
5
72
1
1
8.475
7
standard
210
0
220
0
230
1
50
90
73
2
44
1
0
LINE
5
8F
100
AcDbEntity
8
dimension
6
CONTINUOUS
62
7
370
0
100
AcDbLine
10
31.625
20
337.05
11
102.10078125
21
337.05
0
LINE
5
90
100
AcDbEntity
8
dimension
6
CONTINUOUS
62
7
370
0
100
AcDbLine
10
31.625
20
328.575
11
102.10078125
21
328.575
0
ENDBLK
5
60
330
5E
100
AcDbEntity
8
0
100
AcDbBlockEnd
0
BLOCK
5
62
330
61
100
AcDbEntity
8
0
100
AcDbBlockBegin
2
*D1
70
1
10
0
20
0
3
*D1
1

0
LINE
5
91
100
AcDbEntity
8
dimension
6
CONTINUOUS
62
7
370
0
100
AcDbLine
10
0
20
-54.0842964172
11
1500
21
-54.0842964172
0
SOLID
5
92
100
AcDbEntity
8
dimension
6
CONTINUOUS
62
7
370
0
100
AcDbTrace
10
0
20
-54.0842964172
30
0
11
20
21
-50.754019155
31
0
12
20
22
-57.4145736794
32
0
13
20
23
-57.4145736794
33
0
0
SOLID
5
93
100
AcDbEntity
8
dimension
6
CONTINUOUS
62
7
370
0
100
AcDbTrace
10
1500
20
-54.0842964172
30
0
11
1480
21
-57.4145736794
31
0
12
1480
22
-50.754019155
32
0
13
1480
23
-50.754019155
33
0
0
MTEXT
5
94
100
AcDbEntity
8
dimension
6
CONTINUOUS
62
7
370
0
100
AcDbMText
10
750
20
-44.0592964172
30
0
40
20
41
51.1111111111
71
5
72
1
1
1500
7
standard
210
0
220
0
230
1
50
0
73
2
44
1
0
LINE
5
95
100
AcDbEntity
8
dimension
6
CONTINUOUS
62
7
370
0
100
AcDbLine
10
-4.5924254968e-18
20
1.025
11
-9.18485099361e-18
21
-54.1342964172
0
LINE
5
96
100
AcDbEntity
8
dimension
6
CONTINUOUS
62
7
370
0
100
AcDbLine
10
1500
20
1.025
11
1500
21
-54.1342964172
0
ENDBLK
5
63
330
61
100
AcDbEntity
8
0
100
AcDbBlockEnd
0
BLOCK
5
65
330
64
100
AcDbEntity
8
0
100
AcDbBlockBegin
2
*D8
70
1
10
0
20
0
3
*D8
1

0
LINE
5
97
100
AcDbEntity
8
dimension
6
CONTINUOUS
62
7
370
0
100
AcDbLine
10
71.6
20
412
11
-40
21
412
0
SOLID
5
98
100
AcDbEntity
8
dimension
6
CONTINUOUS
62
7
370
0
100
AcDbTrace
10
31.6
20
412
30
0
11
51.6
21
415.330277262
31
0
12
51.6
22
408.669722738
32
0
13
51.6
23
408.669722738
33
0
0
SOLID
5
99
100
AcDbEntity
8
dimension
6
CONTINUOUS
62
7
370
0
100
AcDbTrace
10
-7.88860905221e-31
20
412
30
0
11
-20
21
408.669722738
31
0
12
-20
22
415.330277262
32
0
13
-20
23
415.330277262
33
0
0
MTEXT
5
9A
100
AcDbEntity
8
dimension
6
CONTINUOUS
62
7
370
0
100
AcDbMText
10
52.7361111111
20
422.025
30
0
40
20
41
42.2222222222
71
5
72
1
1
31.6
7
standard
210
0
220
0
230
1
50
360
73
2
44
1
0
LINE
5
9B
100
AcDbEntity
8
dimension
6
CONTINUOUS
62
7
370
0
100
AcDbLine
10
31.6
20
337.075
11
31.6
21
412.05
0
LINE
5
9C
100
AcDbEntity
8
dimension
6
CONTINUOUS
62
7
370
0
100
AcDbLine
10
1.53080849893e-18
20
337.075
11
3.06161699787e-18
21
412.05
0
ENDBLK
5
66
330
64
100
AcDbEntity
8
0
100
AcDbBlockEnd
0
ENDSEC
0
SECTION
2
ENTITIES
0
LINE
5
9D
100
AcDbEntity
8
boundary
6
ByLayer
62
256
370
-1
100
AcDbLine
10
1500
20
1.05
11
1500
21
337.05
0
LINE
5
9E
100
AcDbEntity
8
boundary
6
ByLayer
62
256
370
-1
100
AcDbLine
10
0
20
337.05
11
0
21
1.05
0
CIRCLE
5
9F
100
AcDbEntity
8
10-32 insert holes
6
ByLayer
62
256
370
-1
100
AcDbCircle
10
17.5
20
169.05
40
3.3909
0
CIRCLE
5
A0
100
AcDbEntity
8
10-32 insert holes
6
ByLayer
62
256
370
-1
100
AcDbCircle
10
17.5
20
245.25
40
3.3909
0
CIRCLE
5
A1
100
AcDbEntity
8
10-32 insert holes
6
ByLayer
62
256
370
-1
100
AcDbCircle
10
17.5
20
321.45
40
3.3909
0
CIRCLE
5
A2
100
AcDbEntity
8
10-32 insert holes
6
ByLayer
62
256
370
-1
100
AcDbCircle
10
17.5
20
92.85
40
3.3909
0
CIRCLE
5
A3
100
AcDbEntity
8
10-32 insert holes
6
ByLayer
62
256
370
-1
100
AcDbCircle
10
17.5
20
16.65
40
3.3909
0
CIRCLE
5
A4
100
AcDbEntity
8
10-32 insert holes
6
ByLayer
62
256
370
-1
100
AcDbCircle
10
1482.5
20
169.05
40
3.3909
0
CIRCLE
5
A5
100
AcDbEntity
8
10-32 insert holes
6
ByLayer
62
256
370
-1
100
AcDbCircle
10
1482.5
20
245.25
40
3.3909
0
CIRCLE
5
A6
100
AcDbEntity
8
10-32 insert holes
6
ByLayer
62
256
370
-1
100
AcDbCircle
10
1482.5
20
321.45
40
3.3909
0
CIRCLE
5
A7
100
AcDbEntity
8
10-32 insert holes
6
ByLayer
62
256
370
-1
100
AcDbCircle
10
1482.5
20
92.85
40
3.3909
0
CIRCLE
5
A8
100
AcDbEntity
8
10-32 insert holes
6
ByLayer
62
256
370
-1
100
AcDbCircle
10
1482.5
20
16.65
40
3.3909
0
LINE
5
A9
100
AcDbEntity
8
reference
6
ByLayer
62
256
370
-1
100
AcDbLine
10
1500
20
19.05
11
0
21
19.05
0
DIMENSION
5
AA
100
AcDbEntity
8
dimension
6
ByLayer
62
256
370
-1
100
AcDbDimension
2
*D1
10
1500
20
-54.0842964172
30
0
11
750
21
-44.0592964172
31
0
70
32
71
5
3
Standard
53
0
210
0
220
0
230
1
100
AcDbAlignedDimension
13
0
23
1.05
33
0
14
1500
24
1.05
34
0
100
AcDbRotatedDimension
0
DIMENSION
5
AB
100
AcDbEntity
8
dimension
6
ByLayer
62
256
370
-1
100
AcDbDimension
2
*D2
10
-55.1342964172
20
1.05
30
0
11
-65.1592964172
21
169.05
31
0
70
32
71
5
3
Standard
53
0
210
0
220
0
230
1
100
AcDbAlignedDimension
13
0
23
337.05
33
0
14
0
24
1.05
34
0
50
90
100
AcDbRotatedDimension
0
DIMENSION
5
AC
100
AcDbEntity
8
dimension
6
ByLayer
62
256
370
-1
100
AcDbDimension
2
*D3
10
1550.29296875
20
245.25
30
0
11
1540.26796875
21
207.15
31
0
70
32
71
5
3
Standard
53
0
210
0
220
0
230
1
100
AcDbAlignedDimension
13
1482.5
23
169.05
33
0
14
1482.5
24
245.25
34
0
50
90
100
AcDbRotatedDimension
0
LINE
5
AD
100
AcDbEntity
8
boundary
6
ByLayer
62
256
370
-1
100
AcDbLine
10
41.6
20
1.05
11
41.6
21
0
0
LINE
5
AE
100
AcDbEntity
8
boundary
6
ByLayer
62
256
370
-1
100
AcDbLine
10
1458.4
20
1.05
11
1458.4
21
0
0
LINE
5
AF
100
AcDbEntity
8
boundary
6
ByLayer
62
256
370
-1
100
AcDbLine
10
41.6
20
0
11
1458.4
21
0
0
LINE
5
B0
100
AcDbEntity
8
boundary
6
ByLayer
62
256
370
-1
100
AcDbLine
10
0
20
1.05
11
41.6
21
1.05
0
LINE
5
B1
100
AcDbEntity
8
boundary
6
ByLayer
62
256
370
-1
100
AcDbLine
10
1458.4
20
1.05
11
1500
21
1.05
0
LINE
5
B2
100
AcDbEntity
8
boundary
6
ByLayer
62
256
370
-1
100
AcDbLine
10
31.6
20
337.05
11
31.6
21
328.575
0
LINE
5
B3
100
AcDbEntity
8
boundary
6
ByLayer
62
256
370
-1
100
AcDbLine
10
1468.4
20
337.05
11
1468.4
21
328.575
0
LINE
5
B4
100
AcDbEntity
8
boundary
6
ByLayer
62
256
370
-1
100
AcDbLine
10
31.6
20
337.05
11
0
21
337.05
0
LINE
5
B5
100
AcDbEntity
8
boundary
6
ByLayer
62
256
370
-1
100
AcDbLine
10
1500
20
337.05
11
1468.4
21
337.05
0
LINE
5
B6
100
AcDbEntity
8
boundary
6
ByLayer
62
256
370
-1
100
AcDbLine
10
31.6
20
328.575
11
1468.4
21
328.575
0
LINE
5
B7
100
AcDbEntity
8
end pocket
6
ByLayer
62
256
370
-1
100
AcDbLine
10
-10
20
-10
11
36.6
21
-10
0
LINE
5
B8
100
AcDbEntity
8
end pocket
6
ByLayer
62
256
370
-1
100
AcDbLine
10
36.6
20
-10
11
36.6
21
347.05
0
LINE
5
B9
100
AcDbEntity
8
end pocket
6
ByLayer
62
256
370
-1
100
AcDbLine
10
36.6
20
347.05
11
-10
21
347.05
0
LINE
5
BA
100
AcDbEntity
8
end pocket
6
ByLayer
62
256
370
-1
100
AcDbLine
10
-10
20
347.05
11
-10
21
-10
0
LINE
5
BB
100
AcDbEntity
8
end pocket
6
ByLayer
62
256
370
-1
100
AcDbLine
10
1510
20
-10
11
1463.4
21
-10
0
LINE
5
BC
100
AcDbEntity
8
end pocket
6
ByLayer
62
256
370
-1
100
AcDbLine
10
1463.4
20
-10
11
1463.4
21
347.05
0
LINE
5
BD
100
AcDbEntity
8
end pocket
6
ByLayer
62
256
370
-1
100
AcDbLine
10
1463.4
20
347.05
11
1510
21
347.05
0
LINE
5
BE
100
AcDbEntity
8
end pocket
6
ByLayer
62
256
370
-1
100
AcDbLine
10
1510
20
347.05
11
1510
21
-10
0
LINE
5
BF
100
AcDbEntity
8
reference
6
ByLayer
62
256
370
-1
100
AcDbLine
10
0
20
1.05
11
36.6
21
1.05
0
LINE
5
C0
100
AcDbEntity
8
reference
6
ByLayer
62
256
370
-1
100
AcDbLine
10
36.6
20
1.05
11
36.6
21
0
0
LINE
5
C1
100
AcDbEntity
8
reference
6
ByLayer
62
256
370
-1
100
AcDbLine
10
1500
20
1.05
11
1463.4
21
1.05
0
LINE
5
C2
100
AcDbEntity
8
reference
6
ByLayer
62
256
370
-1
100
AcDbLine
10
1463.4
20
1.05
11
1463.4
21
0
0
LINE
5
C3
100
AcDbEntity
8
reference
6
ByLayer
62
256
370
-1
100
AcDbLine
10
1500
20
1.05
11
1500
21
19.05
0
LINE
5
C4
100
AcDbEntity
8
reference
6
ByLayer
62
256
370
-1
100
AcDbLine
10
0
20
19.05
11
0
21
1.05
0
LINE
5
C5
100
AcDbEntity
8
reference
6
ByLayer
62
256
370
-1
100
AcDbLine
10
36.6
20
0
11
1463.4
21
0
0
LINE
5
C6
100
AcDbEntity
8
reference
6
ByLayer
62
256
370
-1
100
AcDbLine
10
32.6
20
319.05
11
32.6
21
338.1
0
LINE
5
C7
100
AcDbEntity
8
reference
6
ByLayer
62
256
370
-1
100
AcDbLine
10
32.6
20
338.1
11
1467.4
21
338.1
0
LINE
5
C8
100
AcDbEntity
8
reference
6
ByLayer
62
256
370
-1
100
AcDbLine
10
1467.4
20
319.05
11
32.6
21
319.05
0
LINE
5
C9
100
AcDbEntity
8
reference
6
ByLayer
62
256
370
-1
100
AcDbLine
10
1467.4
20
338.1
11
1467.4
21
319.05
0
LINE
5
CA
100
AcDbEntity
8
reference
6
ByLayer
62
256
370
-1
100
AcDbLine
10
0
20
337.05
11
31.6
21
337.05
0
LINE
5
CB
100
AcDbEntity
8
reference
6
ByLayer
62
256
370
-1
100
AcDbLine
10
31.6
20
337.05
11
31.6
21
319.05
0
LINE
5
CC
100
AcDbEntity
8
reference
6
ByLayer
62
256
370
-1
100
AcDbLine
10
31.6
20
319.05
11
0
21
319.05
0
LINE
5
CD
100
AcDbEntity
8
reference
6
ByLayer
62
256
370
-1
100
AcDbLine
10
0
20
319.05
11
0
21
337.05
0
LINE
5
CE
100
AcDbEntity
8
reference
6
ByLayer
62
256
370
-1
100
AcDbLine
10
1500
20
337.05
11
1468.4
21
337.05
0
LINE
5
CF
100
AcDbEntity
8
reference
6
ByLayer
62
256
370
-1
100
AcDbLine
10
1468.4
20
337.05
11
1468.4
21
319.05
0
LINE
5
D0
100
AcDbEntity
8
reference
6
ByLayer
62
256
370
-1
100
AcDbLine
10
1468.4
20
319.05
11
1500
21
319.05
0
LINE
5
D1
100
AcDbEntity
8
reference
6
ByLayer
62
256
370
-1
100
AcDbLine
10
1500
20
319.05
11
1500
21
337.05
0
DIMENSION
5
D2
100
AcDbEntity
8
dimension
6
ByLayer
62
256
370
-1
100
AcDbDimension
2
*D4
10
1467.4
20
374.391674996
30
0
11
750
21
384.416674996
31
0
70
32
71
5
72
0
3
Standard
53
0
210
0
220
0
230
1
100
AcDbAlignedDimension
13
32.6
23
338.1
33
0
14
1467.4
24
338.1
34
0
100
AcDbRotatedDimension
0
DIMENSION
5
D3
100
AcDbEntity
8
dimension
6
ByLayer
62
256
370
-1
100
AcDbDimension
2
*D5
10
1500
20
362.3046875
30
0
11
1491.25
21
372.3296875
31
0
70
32
71
5
3
Standard
53
0
210
0
220
0
230
1
100
AcDbAlignedDimension
13
1482.5
23
321.45
33
0
14
1500
24
337.05
34
0
100
AcDbRotatedDimension
0
DIMENSION
5
D4
100
AcDbEntity
8
dimension
6
ByLayer
62
256
370
-1
100
AcDbDimension
2
*D6
10
-2.27910596343e-14
20
-35.15625
30
0
11
18.3
21
-25.13125
31
0
70
32
71
5
3
Standard
53
0
210
0
220
0
230
1
100
AcDbAlignedDimension
13
36.6
23
347.05
33
0
14
0
24
337.05
34
0
100
AcDbRotatedDimension
0
DIMENSION
5
D5
100
AcDbEntity
8
dimension
6
ByLayer
62
256
370
-1
100
AcDbDimension
2
*D7
10
102.05078125
20
328.575
30
0
11
92.02578125
21
332.8125
31
0
70
32
71
5
3
Standard
53
0
210
0
220
0
230
1
100
AcDbAlignedDimension
13
31.6
23
337.05
33
0
14
31.6
24
328.575
34
0
50
90
100
AcDbRotatedDimension
0
MTEXT
5
D6
100
AcDbEntity
8
notes
6
ByLayer
62
256
370
-1
100
AcDbMText
10
5.37693267688
20
-199.23390937
30
0
40
15
41
978.333370238
71
1
72
1
1
Notes:\P\P1) Adjust end pocket depth so that final dimension of tunnel section end is 336mm x 336mm. \PIf thickness is 19.05mm then pocket depth should be 1.05mm. 
7

210
0
220
0
230
1
50
0
73
2
44
1
0
DIMENSION
5
D7
100
AcDbEntity
8
dimension
6
ByLayer
62
256
370
-1
100
AcDbDimension
2
*D8
10
4.58936387982e-15
20
412
30
0
11
15.8
21
422.025
31
0
70
32
71
5
3
Standard
53
0
210
0
220
0
230
1
100
AcDbAlignedDimension
13
31.6
23
337.05
33
0
14
0
24
337.05
34
0
100
AcDbRotatedDimension
0
DIMENSION
5
D8
100
AcDbEntity
8
dimension
6
ByLayer
62
256
370
-1
100
AcDbDimension
2
*D9
10
-87
20
337.05
30
0
11
-97.025
21
328.05
31
0
70
32
71
5
3
Standard
53
0
210
0
220
0
230
1
100
AcDbAlignedDimension
13
0
23
319.05
33
0
14
0
24
337.05
34
0
50
90
100
AcDbRotatedDimension
0
ENDSEC
0
SECTION
2
OBJECTS
0
DICTIONARY
5
C
330
0
100
AcDbDictionary
281
1
3
ACAD_GROUP
350
D
0
DICTIONARY
5
D
330
C
100
AcDbDictionary
281
1
0
ENDSEC
0
EOF
